<svg width="32" height="32" viewBox="0 0 32 32" fill="none" xmlns="http://www.w3.org/2000/svg">
<path d="M9.8929 12.9377C10.6293 12.9377 11.2262 12.3407 11.2262 11.6043C11.2262 10.8679 10.6293 10.271 9.8929 10.271C9.15652 10.271 8.55957 10.8679 8.55957 11.6043C8.55957 12.3407 9.15652 12.9377 9.8929 12.9377Z" fill="#D0CFCE"/>
<path d="M20.512 12.9377C21.2484 12.9377 21.8454 12.3407 21.8454 11.6043C21.8454 10.8679 21.2484 10.271 20.512 10.271C19.7757 10.271 19.1787 10.8679 19.1787 11.6043C19.1787 12.3407 19.7757 12.9377 20.512 12.9377Z" fill="#D0CFCE"/>
<path d="M20.5127 7.15991C18.062 7.15991 16.0682 9.15369 16.0682 11.6044C16.0682 14.055 18.062 16.0488 20.5127 16.0488C22.9634 16.0488 24.9571 14.0555 24.9571 11.6044C24.9571 9.15325 22.9638 7.15991 20.5127 7.15991ZM20.5127 12.9377C19.7776 12.9377 19.1794 12.3395 19.1794 11.6044C19.1794 10.8692 19.7776 10.271 20.5127 10.271C21.2478 10.271 21.846 10.8692 21.846 11.6044C21.846 12.3395 21.2482 12.9377 20.5127 12.9377ZM9.89269 7.15991C7.44202 7.15991 5.44824 9.15369 5.44824 11.6044C5.44824 14.055 7.44202 16.0488 9.89269 16.0488C12.3434 16.0488 14.3371 14.0555 14.3371 11.6044C14.3371 9.15325 12.3434 7.15991 9.89269 7.15991ZM9.89269 12.9377C9.15713 12.9377 8.55935 12.3395 8.55935 11.6044C8.55935 10.8692 9.15713 10.271 9.89269 10.271C10.6282 10.271 11.226 10.8692 11.226 11.6044C11.226 12.3395 10.6278 12.9377 9.89269 12.9377ZM9.0798 19.6608L12.19 20.023C12.3571 19.9577 13.4531 19.8586 13.4531 19.8586C13.4531 19.8586 14.7038 20.6506 14.87 21.8901C15.0367 23.1301 12.8065 23.5857 12.706 23.5857C11.5882 23.5857 11.0936 21.559 11.0918 21.5399L9.0798 21.231L9.33313 22.2306C9.4598 22.7328 9.52158 23.2492 9.51669 23.7675L9.50958 24.4844C9.50958 24.683 10.126 25.2879 10.3385 25.2879H21.3722V17.7915H9.08024L9.0798 19.6608Z" fill="#3F3F3F"/>
<path d="M22.9895 19.0343L22.9873 19.0356L23.0602 19.0103L22.9895 19.0343Z" fill="#9B9B9A"/>
<path d="M27.1921 24.4311L27.0863 18.3831C27.0863 18.3831 22.9578 19.0488 22.9769 19.0417L22.9872 19.0355L21.4561 19.4724V23.5702L23.0689 24.0297L23.0058 24.0106C22.9978 24.0084 27.1921 24.4311 27.1921 24.4311Z" fill="#9B9B9A"/>
<path d="M10.7636 21.54C10.8138 21.5489 11.9178 23.1129 11.9525 23.1413C11.9809 23.1653 13.4591 23.5978 13.5533 23.5858C13.6467 23.5729 14.5733 22.6849 14.5991 22.6369C14.6076 22.6218 15.1213 21.8547 14.968 21.2147C14.86 20.7658 14.0769 20.3787 14.048 20.3569C13.9778 20.3031 12.408 20.0302 12.4036 20.0293C12.4036 20.0293 5.49824 18.8916 5.44802 18.8569L3.50802 17.2947L2.91602 20.8725L5.0249 20.5458C5.07424 20.5382 10.7636 21.54 10.7636 21.54Z" fill="#D0CFCE"/>
<path d="M9.50923 17.791H21.3723V25.2879H10.3377C9.8799 25.2879 9.50879 24.9279 9.50879 24.4843V23.0959" stroke="black" stroke-width="0.444444" stroke-linecap="round" stroke-linejoin="round"/>
<path d="M3.51786 17.5066L3.00586 20.8724L5.23564 20.5261L11.2774 21.6337C11.2691 21.7552 11.2733 21.8784 11.2899 22.0035C11.3412 22.3845 11.5116 22.7395 11.7767 23.0179C12.0418 23.2963 12.388 23.4839 12.7661 23.5538C13.1441 23.6238 13.5345 23.5725 13.8817 23.4074C14.2289 23.2422 14.515 22.9716 14.6992 22.6342C14.8835 22.2968 14.9564 21.9098 14.9077 21.5285C14.8589 21.1471 14.691 20.791 14.4278 20.5107C14.1646 20.2305 13.8196 20.0406 13.442 19.9681C13.0645 19.8956 12.6737 19.9442 12.3254 20.107L5.54008 18.863L3.51786 17.5066Z" stroke="black" stroke-width="0.444444" stroke-linecap="round" stroke-linejoin="round"/>
<path d="M20.5128 16.0488C22.9674 16.0488 24.9572 14.059 24.9572 11.6044C24.9572 9.14976 22.9674 7.15991 20.5128 7.15991C18.0582 7.15991 16.0684 9.14976 16.0684 11.6044C16.0684 14.059 18.0582 16.0488 20.5128 16.0488Z" stroke="black" stroke-width="0.444444" stroke-linecap="round" stroke-linejoin="round"/>
<path d="M20.513 12.9377C21.2494 12.9377 21.8464 12.3407 21.8464 11.6043C21.8464 10.8679 21.2494 10.271 20.513 10.271C19.7766 10.271 19.1797 10.8679 19.1797 11.6043C19.1797 12.3407 19.7766 12.9377 20.513 12.9377Z" stroke="black" stroke-width="0.444444" stroke-linecap="round" stroke-linejoin="round"/>
<path d="M9.89269 16.0488C12.3473 16.0488 14.3371 14.059 14.3371 11.6044C14.3371 9.14976 12.3473 7.15991 9.89269 7.15991C7.43809 7.15991 5.44824 9.14976 5.44824 11.6044C5.44824 14.059 7.43809 16.0488 9.89269 16.0488Z" stroke="black" stroke-width="0.444444" stroke-linecap="round" stroke-linejoin="round"/>
<path d="M9.8929 12.9377C10.6293 12.9377 11.2262 12.3407 11.2262 11.6043C11.2262 10.8679 10.6293 10.271 9.8929 10.271C9.15652 10.271 8.55957 10.8679 8.55957 11.6043C8.55957 12.3407 9.15652 12.9377 9.8929 12.9377Z" stroke="black" stroke-width="0.444444" stroke-linecap="round" stroke-linejoin="round"/>
<path d="M23.1348 23.5857L27.0868 24.5248V18.3826L23.1348 19.4546" stroke="black" stroke-width="0.444444" stroke-linecap="round" stroke-linejoin="round"/>
</svg>
